M48
; DRILL file KiCad 10.0.4 date 2026-07-13T12:24:33
; FORMAT={-:-/ absolute / metric / decimal}
; #@! TF.CreationDate,2026-07-13T12:24:33+05:30
; #@! TF.GenerationSoftware,Kicad,Pcbnew,10.0.4
; #@! TF.FileFunction,Plated,1,2,PTH
FMAT,2
METRIC
; #@! TA.AperFunction,Plated,PTH,ViaDrill
T1C0.300
; #@! TA.AperFunction,Plated,PTH,ComponentDrill
T2C0.800
; #@! TA.AperFunction,Plated,PTH,ComponentDrill
T3C1.000
; #@! TA.AperFunction,Plated,PTH,ComponentDrill
T4C1.100
; #@! TA.AperFunction,Plated,PTH,ComponentDrill
T5C1.300
%
G90
G05
T1
X136.4Y-67.425
X140.65Y-67.675
T2
X116.048Y-63.26
X118.5Y-75.5
X118.5Y-77.5
X118.588Y-63.26
X120.5Y-75.5
X120.5Y-77.5
X122.5Y-75.5
X122.5Y-77.5
T3
X75.5Y-61.69
X75.5Y-64.23
X75.5Y-66.77
X75.5Y-69.31
X75.88Y-91.075
X75.88Y-93.615
X75.88Y-96.155
X75.88Y-98.695
X77.13Y-119.61
X77.13Y-122.15
X77.13Y-124.69
X77.13Y-127.23
X78.92Y-56.345
X78.92Y-58.885
X78.92Y-61.425
X78.92Y-63.965
X78.92Y-66.505
X78.92Y-69.045
X78.92Y-71.585
X78.92Y-74.125
X79.8Y-86.0
X79.8Y-88.54
X79.8Y-91.08
X79.8Y-93.62
X79.8Y-96.16
X79.8Y-98.7
X79.8Y-101.24
X79.8Y-103.78
X80.8Y-113.96
X80.8Y-116.5
X80.8Y-119.04
X80.8Y-121.58
X80.8Y-124.12
X80.8Y-126.66
X80.8Y-129.2
X80.8Y-131.74
X91.62Y-56.345
X91.62Y-58.885
X91.62Y-61.425
X91.62Y-63.965
X91.62Y-66.505
X91.62Y-69.045
X91.62Y-71.585
X91.62Y-74.125
X92.5Y-86.0
X92.5Y-88.54
X92.5Y-91.08
X92.5Y-93.62
X92.5Y-96.16
X92.5Y-98.7
X92.5Y-101.24
X92.5Y-103.78
X93.5Y-113.96
X93.5Y-116.5
X93.5Y-119.04
X93.5Y-121.58
X93.5Y-124.12
X93.5Y-126.66
X93.5Y-129.2
X93.5Y-131.74
X95.0Y-61.5
X95.5Y-68.96
X95.5Y-71.5
X96.38Y-91.155
X96.38Y-98.89
X96.38Y-101.43
X97.38Y-119.115
X98.38Y-126.615
X98.38Y-129.155
X106.475Y-144.125
X106.475Y-146.665
X106.5Y-62.34
X106.5Y-64.88
X106.5Y-67.42
X106.5Y-69.96
X106.5Y-72.5
X106.5Y-75.04
X106.5Y-77.58
X106.5Y-80.12
X106.5Y-82.66
X106.5Y-85.2
X106.5Y-87.74
X106.5Y-90.28
X106.5Y-92.82
X106.5Y-95.36
X106.5Y-97.9
X106.5Y-100.44
X106.5Y-102.98
X106.5Y-105.52
X106.5Y-108.06
X106.5Y-110.6
X106.5Y-113.14
X106.5Y-115.68
X106.5Y-118.22
X106.5Y-120.76
X112.55Y-144.025
X112.55Y-146.565
X118.2Y-144.075
X118.2Y-146.615
X123.525Y-143.975
X123.525Y-146.515
X128.5Y-62.49
X128.5Y-65.03
X128.5Y-67.57
X128.5Y-70.11
X128.5Y-72.65
X128.5Y-75.19
X128.5Y-77.73
X128.5Y-80.27
X128.5Y-82.81
X128.5Y-85.35
X128.5Y-87.89
X128.5Y-90.43
X128.5Y-92.97
X128.5Y-95.51
X128.5Y-98.05
X128.5Y-100.59
X128.5Y-103.13
X128.5Y-105.67
X128.5Y-108.21
X128.5Y-110.75
X128.5Y-113.29
X128.5Y-115.83
X128.5Y-118.37
X128.5Y-120.91
X128.975Y-144.025
X128.975Y-146.565
X146.5Y-85.74
X146.5Y-88.28
X146.5Y-95.74
X147.0Y-60.0
X147.0Y-62.54
X147.0Y-70.5
X147.5Y-110.5
X147.5Y-113.04
X148.0Y-120.5
X150.3Y-83.0
X150.3Y-85.54
X150.3Y-88.08
X150.3Y-90.62
X150.3Y-93.16
X150.3Y-95.7
X150.3Y-98.24
X150.3Y-100.78
X150.76Y-57.5
X150.76Y-60.04
X150.76Y-62.58
X150.76Y-65.12
X150.76Y-67.66
X150.76Y-70.2
X150.76Y-72.74
X150.76Y-75.28
X151.38Y-107.88
X151.38Y-110.42
X151.38Y-112.96
X151.38Y-115.5
X151.38Y-118.04
X151.38Y-120.58
X151.38Y-123.12
X151.38Y-125.66
X163.0Y-83.0
X163.0Y-85.54
X163.0Y-88.08
X163.0Y-90.62
X163.0Y-93.16
X163.0Y-95.7
X163.0Y-98.24
X163.0Y-100.78
X163.46Y-57.5
X163.46Y-60.04
X163.46Y-62.58
X163.46Y-65.12
X163.46Y-67.66
X163.46Y-70.2
X163.46Y-72.74
X163.46Y-75.28
X164.08Y-107.88
X164.08Y-110.42
X164.08Y-112.96
X164.08Y-115.5
X164.08Y-118.04
X164.08Y-120.58
X164.08Y-123.12
X164.08Y-125.66
X166.5Y-88.24
X166.5Y-90.78
X166.5Y-93.32
X166.5Y-95.86
X167.0Y-62.5
X167.0Y-65.04
X167.0Y-67.58
X167.0Y-70.12
X167.5Y-113.0
X167.5Y-115.54
X167.5Y-118.08
X167.5Y-120.62
T4
X109.698Y-62.53
X109.698Y-65.07
X109.698Y-67.61
X109.698Y-70.15
X109.698Y-72.69
X109.698Y-75.23
X109.698Y-77.77
X109.698Y-80.31
X109.698Y-82.85
X109.698Y-85.39
X109.698Y-87.93
X109.698Y-90.47
X109.698Y-93.01
X109.698Y-95.55
X109.698Y-98.09
X109.698Y-100.63
X109.698Y-103.17
X109.698Y-105.71
X109.698Y-108.25
X109.698Y-110.79
X109.698Y-113.33
X109.698Y-115.87
X109.698Y-118.41
X109.698Y-120.95
X112.238Y-108.25
X112.749Y-68.829
X112.749Y-71.369
X112.749Y-73.909
X112.749Y-76.449
X112.749Y-78.989
X114.778Y-108.25
X117.318Y-108.25
X119.858Y-108.25
X122.398Y-65.07
X122.398Y-108.25
X124.938Y-62.53
X124.938Y-65.07
X124.938Y-67.61
X124.938Y-70.15
X124.938Y-72.69
X124.938Y-75.23
X124.938Y-77.77
X124.938Y-80.31
X124.938Y-82.85
X124.938Y-85.39
X124.938Y-87.93
X124.938Y-90.47
X124.938Y-93.01
X124.938Y-95.55
X124.938Y-98.09
X124.938Y-100.63
X124.938Y-103.17
X124.938Y-105.71
X124.938Y-108.25
X124.938Y-110.79
X124.938Y-113.33
X124.938Y-115.87
X124.938Y-118.41
X124.938Y-120.95
T5
X142.0Y-35.0
X164.5Y-35.0
X176.25Y-32.92
X176.25Y-38.0
M30
